<?xml version="1.0" encoding="utf-8"?>
<!-- Generator: Adobe Illustrator 21.1.0, SVG Export Plug-In . SVG Version: 6.00 Build 0)  -->
<svg version="1.1" id="Layer_1" xmlns="http://www.w3.org/2000/svg" xmlns:xlink="http://www.w3.org/1999/xlink" x="0px" y="0px"
	 viewBox="0 0 251.3 110.3" style="enable-background:new 0 0 251.3 110.3;" xml:space="preserve">
<g>
	<path fill="#ffffff" d="M29.5,5.6v100.6H4.6V5.6h15.1v90.9h-5.2V10.7H9.8V101h14.5V5.6H29.5z"/>
	<path fill="#ffffff" d="M91.4,106.2c-17.4,0-34.5-9.8-43.7-25.4c-4.6-7.8-6.9-16.1-6.9-25c0-17.8,9.8-34.5,25.6-43.7c7.9-4.5,16.2-6.8,25-6.8
		c17.7,0,34.6,9.8,43.7,25.4c4.5,7.9,6.8,16.2,6.8,25c0,17.2-9.8,34.5-25.3,43.5C108.7,103.9,100.3,106.2,91.4,106.2z M91.4,10.3
		c-16.5,0-31.2,8.6-39.2,22.6c-4,7-6,14.7-6,22.8c0,16.5,8.6,31.2,22.6,39.2c6.9,4,14.5,6,22.7,6c16.5,0,31.3-8.6,39.4-22.6
		c4-6.9,6-14.5,6-22.7c0-16.5-8.5-31.3-22.7-39.4C107.1,12.3,99.5,10.3,91.4,10.3z M91.4,96.4c-14.2,0-28.2-7.8-35.5-20.4
		c-3.7-6.2-5.6-12.9-5.6-20.3c0-14.4,7.8-28.2,20.3-35.2c6.2-3.6,13.2-5.3,20.8-5.3c15.7,0,28.6,7.2,35.5,19.5c3.3,6.2,5,13.2,5,21
		c0,14.5-7.3,27.7-20,35.1C105.5,94.5,98.7,96.4,91.4,96.4z M91.4,20.2c-12.8,0-24.6,6.8-30.9,17.5c-3.2,5.5-4.7,11.5-4.7,18
		c0,12.8,6.9,24.4,17.8,30.7c5.3,3.3,11.4,4.9,17.8,4.9c13.1,0,24.3-6.9,30.7-18c3.2-5.5,4.7-11.3,4.7-17.7
		c0-13.1-6.8-24.6-17.7-30.9C103.6,21.8,97.7,20.2,91.4,20.2z M91.4,87C80.1,87,70,81.2,64.3,71.2c-2.9-4.9-4.3-10.1-4.3-15.5
		c0-11.4,6.2-21.8,15.7-27.2c4.7-2.7,9.9-4,15.8-4c11.1,0,21.4,6,26.7,15.4c2.7,4.7,4,9.9,4,15.8c0,11.5-5.5,21.4-15.1,27
		C102.3,85.6,97,87,91.4,87z M91.4,29.7c-9.2,0-17.8,5-22.6,13.1c-2.4,4-3.6,8.3-3.6,12.9c0,9.2,4.9,17.7,12.9,22.3
		c3.9,2.3,8.3,3.4,13.2,3.4c9.6,0,17.8-4.9,22.4-12.9c2.2-3.9,3.3-8.2,3.3-12.8c0-9.3-4.9-18-12.8-22.6
		C100.3,30.9,96,29.7,91.4,29.7z"/>
	<path fill="#ffffff" d="M212.8,15.2l-39.4,49.9v41.1l-25.1,0.1V5.6h5.2v95.5h14.7V63.2l38.1-48H212.8z M181.3,62.5l40.5-51.6h-18.7L163.2,62v35.3
		h-5.2V60.3l42.7-54.7h31.8L188,62.5l25.7,34.9h-6.5L181.3,62.5z M158.1,51.7V5.6h15.2v26.7l-5.3,6.6v-28h-4.7v34.2L158.1,51.7z
		 M201.5,106.2L178.3,75v-8.6l25.7,34.8h18.2L194.1,63l3.3-4.2l35.2,47.3H201.5z"/>
</g>
<g>
	<path fill="#ffffff" d="M244.9,106.5c-0.6,0-1.2-0.1-1.7-0.3c-0.5-0.2-1-0.5-1.4-0.9c-0.4-0.4-0.7-0.8-0.9-1.4c-0.2-0.5-0.3-1.1-0.3-1.7v0
		c0-0.6,0.1-1.1,0.3-1.7c0.2-0.5,0.5-1,0.9-1.4c0.4-0.4,0.9-0.7,1.4-0.9c0.5-0.2,1.1-0.3,1.7-0.3c0.6,0,1.2,0.1,1.7,0.3
		c0.5,0.2,1,0.5,1.4,0.9c0.4,0.4,0.7,0.9,0.9,1.4c0.2,0.5,0.3,1.1,0.3,1.7v0c0,0.6-0.1,1.2-0.3,1.7c-0.2,0.5-0.5,1-0.9,1.4
		c-0.4,0.4-0.9,0.7-1.4,0.9C246.1,106.4,245.6,106.5,244.9,106.5z M244.9,106c0.6,0,1.1-0.1,1.5-0.3c0.5-0.2,0.9-0.5,1.2-0.8
		s0.6-0.8,0.8-1.2c0.2-0.5,0.3-1,0.3-1.5v0c0-0.5-0.1-1-0.3-1.5c-0.2-0.5-0.5-0.9-0.8-1.2c-0.3-0.4-0.8-0.6-1.2-0.8
		c-0.5-0.2-1-0.3-1.5-0.3s-1.1,0.1-1.5,0.3c-0.5,0.2-0.9,0.5-1.2,0.8c-0.3,0.4-0.6,0.8-0.8,1.2c-0.2,0.5-0.3,1-0.3,1.5v0
		c0,0.5,0.1,1,0.3,1.5c0.2,0.5,0.5,0.9,0.8,1.2c0.3,0.4,0.8,0.6,1.2,0.8C243.9,105.9,244.4,106,244.9,106z M243.2,99.7h2
		c0.6,0,1.1,0.2,1.4,0.5c0.2,0.2,0.4,0.5,0.4,0.9v0c0,0.4-0.1,0.7-0.3,0.9c-0.2,0.2-0.5,0.4-0.8,0.5l1.2,1.7h-1l-1.1-1.6h0h-0.9v1.6
		h-0.9V99.7z M245.2,102c0.3,0,0.5-0.1,0.7-0.2s0.2-0.3,0.2-0.5v0c0-0.2-0.1-0.4-0.2-0.5c-0.2-0.1-0.4-0.2-0.7-0.2h-1.1v1.4H245.2z"
		/>
</g>
</svg>
